<?xml version="1.0" encoding="UTF-8" standalone="no"?>
<!-- Created with Inkscape (http://www.inkscape.org/) -->

<svg
   width="8.4666662mm"
   height="8.4666662mm"
   viewBox="0 0 8.4666662 8.4666662"
   version="1.1"
   id="svg5"
   xml:space="preserve"
   xmlns="http://www.w3.org/2000/svg"
   xmlns:svg="http://www.w3.org/2000/svg"><defs
     id="defs2" /><g
     id="layer1"
     transform="translate(-128.50571,-54.183414)"><path
       id="rect4116"
       style="fill:#ffffff;fill-opacity:1;stroke:none;stroke-width:0.529167;stroke-dasharray:none;stroke-opacity:1;paint-order:stroke fill markers"
       d="M 128.77029 57.622997 L 128.77029 62.385497 L 136.70779 62.385497 L 136.70779 57.622997 L 134.70068 57.622997 L 134.08573 58.238464 L 133.76172 58.400211 L 132.35354 58.80277 L 132.69098 57.622997 L 128.77029 57.622997 z " /><path
       id="path1496"
       style="color:#000000;fill:#727272;-inkscape-stroke:none;paint-order:stroke fill markers"
       d="M 128.50571 55.770914 L 128.50571 57.358414 L 132.77418 57.358414 L 132.91784 57.07006 L 134.21751 55.770914 L 128.50571 55.770914 z M 136.55121 55.770914 L 135.79105 56.531591 L 134.96526 57.358414 L 136.97238 57.358414 L 136.97238 55.770914 L 136.55121 55.770914 z M 128.50571 57.359448 L 128.50571 57.622997 L 128.50571 62.650597 L 136.97289 62.650597 L 136.97289 57.359448 L 134.96423 57.359448 L 134.43713 57.886547 L 136.44321 57.886547 L 136.44321 58.945397 L 134.32603 58.945397 L 134.32603 57.998168 L 134.08573 58.238464 L 133.79686 58.382641 L 133.79686 58.945397 L 131.68174 58.945397 L 131.68174 57.886547 L 132.61554 57.886547 L 132.7561 57.394588 L 132.77367 57.359448 L 128.50571 57.359448 z M 129.03539 57.886547 L 131.15258 57.886547 L 131.15258 58.945397 L 129.03539 58.945397 L 129.03539 57.886547 z M 129.03539 59.474564 L 131.15258 59.474564 L 131.15258 60.533414 L 129.03539 60.533414 L 129.03539 59.474564 z M 131.68174 59.474564 L 133.79686 59.474564 L 133.79686 60.533414 L 131.68174 60.533414 L 131.68174 59.474564 z M 134.32603 59.474564 L 136.44321 59.474564 L 136.44321 60.533414 L 134.32603 60.533414 L 134.32603 59.474564 z M 129.03539 61.062581 L 131.15258 61.062581 L 131.15258 62.120914 L 129.03539 62.120914 L 129.03539 61.062581 z M 131.68174 61.062581 L 133.79686 61.062581 L 133.79686 62.120914 L 131.68174 62.120914 L 131.68174 61.062581 z M 134.32603 61.062581 L 136.44321 61.062581 L 136.44321 62.120914 L 134.32603 62.120914 L 134.32603 61.062581 z " /><path
       id="rect302"
       style="fill:#4a7db1;fill-opacity:1;stroke-width:0.396999;paint-order:stroke fill markers"
       d="M 128.50571 55.770914 L 128.50571 57.358414 L 132.77418 57.358414 L 132.91784 57.07006 L 134.21751 55.770914 L 128.50571 55.770914 z M 136.55121 55.770914 L 134.96526 57.358414 L 136.97238 57.358414 L 136.97238 55.770914 L 136.55121 55.770914 z " /><g
       id="g3311"
       transform="translate(-12.699997)"><path
         style="fill:#727272;fill-opacity:1;stroke:none;stroke-width:0.529167;stroke-dasharray:none;stroke-opacity:1;paint-order:stroke fill markers"
         d="m 148.21718,54.844872 0.79375,0.79375 -2.38126,2.38125 -0.79375,-0.79375 z"
         id="path2381" /><path
         style="fill:#4a7db1;fill-opacity:1;stroke:none;stroke-width:0.529167;stroke-dasharray:none;stroke-opacity:1;paint-order:stroke fill markers"
         d="m 145.43904,58.416747 0.26459,-0.926041 0.66145,0.661458 z"
         id="path2829" /><path
         style="fill:#4a7db1;fill-opacity:1;stroke:none;stroke-width:0.529167;stroke-dasharray:none;stroke-opacity:1;paint-order:stroke fill markers"
         d="m 149.01092,54.24956 c 0.27045,0.07492 0.52043,0.324855 0.59531,0.595312 0.0243,0.08762 -0.0214,0.185475 -0.0662,0.264584 -0.0615,0.10853 -0.26458,0.264583 -0.26458,0.264583 l -0.79375,-0.79375 c 0,0 0.15604,-0.203134 0.26458,-0.264583 0.0791,-0.0448 0.17701,-0.09042 0.26464,-0.06615 z"
         id="path2900" /></g></g></svg>
