<?xml version="1.0" encoding="UTF-8" standalone="no"?>
<!-- Created with Inkscape (http://www.inkscape.org/) -->

<svg
   width="16"
   height="16"
   viewBox="0 0 4.2333335 4.2333334"
   version="1.1"
   id="svg4428"
   xmlns="http://www.w3.org/2000/svg"
   xmlns:svg="http://www.w3.org/2000/svg">
  <defs
     id="defs4425" />
  <g
     id="layer1"
     transform="translate(0.39707373)">
    <path
       id="path4603"
       style="color:#000000;fill:#000000;stroke-linecap:round;paint-order:stroke fill markers"
       d="M 2.4473958,0.33072917 A 1.0583333,1.0583333 0 0 0 1.3890624,1.3890624 1.0583333,1.0583333 0 0 0 1.4732954,1.8014404 L 0.04960938,3.2251261 a 0.39687499,0.39687499 0 0 0 0,0.5606893 0.39687499,0.39687499 0 0 0 0.56223958,0 L 2.0350178,2.3626464 A 1.0583333,1.0583333 0 0 0 2.4473958,2.4473958 1.0583333,1.0583333 0 0 0 3.5057291,1.3890624 1.0583333,1.0583333 0 0 0 3.3594848,0.85162761 L 2.635498,1.5766479 a 0.26458335,0.26458335 0 0 1 -0.3751709,0 0.26458335,0.26458335 0 0 1 0,-0.3746541 L 2.9848307,0.47749024 A 1.0583333,1.0583333 0 0 0 2.4473958,0.33072917 Z" />
  </g>
</svg>
